<?xml version="1.0" encoding="utf-8"?>
<!-- Generator: Adobe Illustrator 19.1.0, SVG Export Plug-In . SVG Version: 6.00 Build 0)  -->
<svg version="1.1" id="Layer_1" xmlns="http://www.w3.org/2000/svg" xmlns:xlink="http://www.w3.org/1999/xlink" x="0px" y="0px"
	 viewBox="-382 296.6 26.8 21.4" style="enable-background:new -382 296.6 26.8 21.4;" xml:space="preserve">
<style type="text/css">
	.st0{fill:#888888;}
	.st1{opacity:0.5;}
	.st2{fill:#686868;}
</style>
<g>
	<rect x="-382" y="303.5" class="st0" width="7.4" height="5.9"/>
	<rect x="-382" y="310.2" class="st0" width="12" height="5.9"/>
	<rect x="-382" y="296.6" class="st0" width="4.2" height="5.9"/>
</g>
<g>
	<polygon points="-368.8,302.4 -368.8,300 -370.8,300 -370.8,302.4 -373.6,302.4 -369.8,308.9 -366,302.4 	"/>
</g>
<g>
	<path d="M-358.4,306.7l-0.6-1.5h-3l-0.6,1.5h-2l3.3-7.8h1.8l3.2,7.8H-358.4z M-360.5,301l-1,2.7h2L-360.5,301z"/>
</g>
<g class="st1">
	<g>
		<path class="st2" d="M-363.7,315.7v-1.6l3.7-4.6h-3.6v-1.6h6v1.5l-3.8,4.7h3.9v1.6H-363.7z"/>
	</g>
	<g>
		<path d="M-363.7,315.7v-1.6l3.7-4.6h-3.6v-1.6h6v1.5l-3.8,4.7h3.9v1.6H-363.7z"/>
	</g>
</g>
</svg>
